<?xml version="1.0" encoding="UTF-8"?>
<!-- Generator: Adobe Illustrator 23.1.1, SVG Export Plug-In . SVG Version: 6.00 Build 0)  -->
<svg version="1.1" id="圖層_1" xmlns="http://www.w3.org/2000/svg" xmlns:xlink="http://www.w3.org/1999/xlink" x="0px" y="0px" viewBox="0 0 425.2 425.2" style="enable-background:new 0 0 425.2 425.2;" xml:space="preserve">
<style type="text/css">
	.st0{fill:#73C9DD;}
	.st1{fill:#2D2A26;}
	.st2{fill:#EB80A8;}
	.st3{fill:#FFFFFF;}
</style>
<g>
	<rect x="3.8" y="3" class="st0" width="417.8" height="417.8"/>
	<g>
		<g>
			<path class="st1" d="M196.8,267.6H231c0.4,0,0.8-0.3,0.8-0.8v-1c0-0.4-0.3-0.8-0.8-0.8h-34.2c-0.4,0-0.7,0.3-0.7,0.8v1     C196.1,267.2,196.4,267.6,196.8,267.6"/>
			<path class="st1" d="M237.9,291.7h-6.1v-9.6c0-0.4-0.3-0.8-0.7-0.8h-1.2l0,0h-32.9c-0.4,0-0.8,0.4-0.8,0.8v1     c0,0.4,0.4,0.8,0.8,0.8h15.3v7.8h-20.3c-0.4,0-0.8,0.3-0.8,0.8v1c0,0.4,0.3,0.8,0.8,0.8h20.3v7.7h-15.3c-0.4,0-0.8,0.4-0.8,0.8v1     c0,0.4,0.4,0.8,0.8,0.8h15.3c0,1.6-0.4,10.2-6.8,10.2v2c0,0,10.2,1.2,10.4-12.1H229h0.6h1.5c0.4,0,0.7-0.3,0.7-0.8v-9.5h6.1     c0.4,0,0.8-0.3,0.8-0.8v-1C238.7,292,238.3,291.7,237.9,291.7 M215.8,283.9h12.4v7.8h-12.4V283.9z M228.2,301.9h-12.4v-7.7h12.4     V301.9z"/>
			<path class="st1" d="M197,270.3c-0.4,0-0.8,0.3-0.8,0.8v6.9c0,0.4,0.3,0.8,0.8,0.8h2c0.4,0,0.8-0.3,0.8-0.8v-6.9     c0-0.4-0.3-0.8-0.8-0.8H197z"/>
			<path class="st1" d="M213,270.3c-0.4,0-0.8,0.3-0.8,0.8v6.9c0,0.4,0.3,0.8,0.8,0.8h2c0.4,0,0.8-0.3,0.8-0.8v-6.9     c0-0.4-0.3-0.8-0.8-0.8H213z"/>
			<path class="st1" d="M231,270.3h-2c-0.4,0-0.8,0.3-0.8,0.8v6.9c0,0.4,0.3,0.8,0.8,0.8h2c0.4,0,0.8-0.3,0.8-0.8v-6.9     C231.8,270.7,231.4,270.3,231,270.3"/>
		</g>
		<g>
			<path class="st1" d="M304.7,284.1c-0.3-0.3-0.6-0.6-0.9-0.9c-0.9,1.7-1.9,4.3-1.9,7.6h1.2C303.1,288,303.9,285.7,304.7,284.1"/>
			<path class="st1" d="M293.3,281.7l-0.9-0.8c-0.1,0.2-3.3,4-3.3,9.8h1.2C290.3,285.4,293.3,281.8,293.3,281.7"/>
			<path class="st1" d="M294.5,290.8c0-5.4,3-9,3-9l-0.9-0.8c-0.1,0.2-3.3,4-3.3,9.8H294.5z"/>
			<path class="st1" d="M301.9,280.4l3-14.5c0.1-0.4-0.2-0.8-0.6-0.9h-2.2l0.1,0c-0.4-0.1-0.8,0.2-0.9,0.6l-2.9,14.2     c-0.6-0.1-1.3-0.1-2-0.1c-0.4,0-0.8,0-1.2,0l-3-14.1c-0.1-0.4-0.5-0.7-0.9-0.6l0.1,0h-2.2c-0.4,0.1-0.7,0.5-0.6,0.9l3,14.4     c-5.9,1.4-7.6,5.3-7.7,5.5c-0.1,0.2-0.1,0.3-0.1,0.5v4.1c0,0.7,0.6,1.4,1.3,1.4v3.7c0.1,1.8,1.2,5.1,4.8,5.1h4l-0.6,3     c-0.1,0.4,0.2,0.8,0.6,0.9h2.1c0.6,0,0.8-0.2,0.9-0.6l0.7-3.3h5.1c3.6,0,4.7-3.3,4.8-5.2v-3.7c0.7,0,1.3-0.6,1.3-1.4v-4.1     c0-0.2,0-0.4-0.1-0.5C308.8,285.6,307.2,282,301.9,280.4 M305.4,286.4v2.8h-5.3l1.3-6.2C304.2,284,305.1,285.8,305.4,286.4      M287.5,286.4c0.5-0.9,2-4.2,9-4.2c0.5,0,1,0,1.4,0.1l-1.4,6.9h-9V286.4z M290.9,298c-1.9,0-2.1-2.1-2.1-2.4v-3.8h7.1l-1.3,6.3     H290.9z M301.9,298h-3.7l1.3-6.3h4.5v3.8C304.1,295.8,303.9,298,301.9,298"/>
			<path class="st1" d="M330.8,302h-8.4v-10.2h7c0.3,0,0.6-0.3,0.6-0.6v-1.4c0-0.3-0.3-0.6-0.6-0.6h-7V279h8c0.3,0,0.6-0.3,0.6-0.6     V277c0-0.3-0.3-0.6-0.6-0.6h-19.6c-0.3,0-0.6,0.3-0.6,0.6v1.4c0,0.3,0.3,0.6,0.6,0.6h8v10.2h-7c-0.3,0-0.6,0.3-0.6,0.6v1.4     c0,0.3,0.3,0.6,0.6,0.6h7V302h-8.4c-0.3,0-0.6,0.3-0.6,0.6v1.3c0,0.3,0.3,0.6,0.6,0.6h8.4v11.1c0,0.5,0.4,1,1,1h1.6     c0.5,0,1-0.4,1-1v-11.1h8.4c0.3,0,0.6-0.3,0.6-0.6v-1.3C331.4,302.2,331.2,302,330.8,302"/>
			<path class="st1" d="M287.6,308.3h-2c-0.4,0-0.8,0.3-0.8,0.8v6.8c0,0.4,0.3,0.8,0.8,0.8h2c0.4,0,0.8-0.3,0.8-0.8V309     C288.4,308.6,288,308.3,287.6,308.3"/>
			<path class="st1" d="M294.2,308.3h-2c-0.4,0-0.8,0.3-0.8,0.8v6.8c0,0.4,0.3,0.8,0.8,0.8h2c0.4,0,0.8-0.3,0.8-0.8V309     C295,308.6,294.6,308.3,294.2,308.3"/>
			<path class="st1" d="M300.7,308.3h-2c-0.4,0-0.8,0.3-0.8,0.8v6.8c0,0.4,0.4,0.8,0.8,0.8h2c0.4,0,0.8-0.3,0.8-0.8V309     C301.5,308.6,301.2,308.3,300.7,308.3"/>
			<path class="st1" d="M307.3,308.3h-2c-0.4,0-0.8,0.3-0.8,0.8v6.8c0,0.4,0.3,0.8,0.8,0.8h2c0.4,0,0.8-0.3,0.8-0.8V309     C308.1,308.6,307.7,308.3,307.3,308.3"/>
			<path class="st1" d="M313.8,273.3h2c0.4,0,0.8-0.3,0.8-0.8v-6.8c0-0.4-0.3-0.8-0.8-0.8h-2c-0.4,0-0.8,0.3-0.8,0.8v6.8     C313.1,273,313.4,273.3,313.8,273.3"/>
			<path class="st1" d="M325.4,273.3h2c0.4,0,0.8-0.3,0.8-0.8v-6.8c0-0.4-0.4-0.8-0.8-0.8h-2c-0.4,0-0.8,0.3-0.8,0.8v6.8     C324.6,273,325,273.3,325.4,273.3"/>
		</g>
		<g>
			<path class="st1" d="M117.7,286h-3.1c-0.1,0-0.2-0.1-0.2-0.2v-20.5c0-0.1,0.1-0.2,0.2-0.2h3.1c0.1,0,0.2,0.1,0.2,0.2v20.5     C118,285.9,117.9,286,117.7,286z"/>
			<path class="st1" d="M143.3,287.6h-42.3c-0.2,0-0.3-0.1-0.3-0.3v-2c0-0.2,0.1-0.3,0.3-0.3h42.3c0.2,0,0.3,0.1,0.3,0.3v2     C143.6,287.4,143.5,287.6,143.3,287.6z"/>
			<path class="st1" d="M103.9,304.5h-3c-0.2,0-0.3-0.1-0.3-0.3v-18.9c0-0.2,0.1-0.3,0.3-0.3h3c0.2,0,0.3,0.1,0.3,0.3v18.9     C104.2,304.4,104.1,304.5,103.9,304.5z"/>
			<path class="st1" d="M143.4,304.5h-3c-0.2,0-0.3-0.1-0.3-0.3v-18.9c0-0.2,0.1-0.3,0.3-0.3h3c0.2,0,0.3,0.1,0.3,0.3v18.9     C143.7,304.4,143.6,304.5,143.4,304.5z"/>
			<path class="st1" d="M104.8,308.2h-2c-0.4,0-0.8,0.4-0.8,0.8v6.8c0,0.4,0.4,0.8,0.8,0.8h2c0.4,0,0.8-0.4,0.8-0.8V309     C105.5,308.5,105.2,308.2,104.8,308.2"/>
			<path class="st1" d="M116.9,308.2h-2c-0.4,0-0.8,0.4-0.8,0.8v6.8c0,0.4,0.3,0.8,0.8,0.8h2c0.4,0,0.8-0.4,0.8-0.8V309     C117.7,308.5,117.3,308.2,116.9,308.2"/>
			<path class="st1" d="M129,308.2h-2c-0.4,0-0.8,0.4-0.8,0.8v6.8c0,0.4,0.4,0.8,0.8,0.8h2c0.4,0,0.8-0.4,0.8-0.8V309     C129.8,308.5,129.4,308.2,129,308.2"/>
			<path class="st1" d="M141.1,308.2h-2c-0.4,0-0.8,0.4-0.8,0.8v6.8c0,0.4,0.3,0.8,0.8,0.8h2c0.4,0,0.8-0.4,0.8-0.8V309     C141.9,308.5,141.6,308.2,141.1,308.2"/>
			<path class="st1" d="M143.4,304.7h-42.3c-0.2,0-0.3-0.1-0.3-0.3v-2c0-0.2,0.1-0.3,0.3-0.3h42.3c0.2,0,0.3,0.1,0.3,0.3v2     C143.7,304.5,143.6,304.7,143.4,304.7z"/>
			<path class="st1" d="M143.5,276h-26.3c-0.1,0-0.2-0.1-0.2-0.2v-2.1c0-0.1,0.1-0.2,0.2-0.2h26.3c0.1,0,0.2,0.1,0.2,0.2v2.1     C143.7,275.9,143.6,276,143.5,276z"/>
		</g>
		<rect x="167.8" y="264.9" class="st1" width="1.9" height="51.9"/>
		<rect x="258.6" y="264.9" class="st1" width="1.9" height="51.9"/>
	</g>
	<g>
		<path class="st1" d="M113.8,184.6v46.6h-7.4v-46.6H89v-6.5h42.9v6.5H113.8z"/>
		<path class="st1" d="M198.5,178.1h7.4v36.3c0,3.2,1.1,5.9,3.2,8c2.1,2.1,4.9,3.1,8.4,3.1c3.7,0,6.6-1,8.7-3c2.1-2,3.2-4.8,3.2-8.3    v-36.2h7.4V215c0,5.4-1.7,9.5-5.2,12.6c-3.4,3-8.1,4.5-14.1,4.5c-6.1,0-10.8-1.5-14.1-4.4c-3.3-2.9-5-7.2-5-12.7V178.1z"/>
		<path class="st1" d="M284.9,180l-2.5,6.2c-2.4-1.7-6.1-2.5-11.2-2.5c-4.8,0-8.6,2-11.5,6c-2.9,4-4.3,9.2-4.3,15.5    c0,6,1.5,10.9,4.5,14.7c3,3.8,6.8,5.6,11.5,5.6c5.1,0,9.1-1.8,11.8-5.3l4.1,5.5c-4.3,4.2-9.9,6.3-16.7,6.3    c-7.1,0-12.7-2.5-16.8-7.5c-4.1-5-6.1-11.6-6.1-19.8c0-7.9,2.2-14.5,6.6-19.7c4.4-5.2,10-7.9,16.9-7.9    C276.9,177.2,281.5,178.1,284.9,180z"/>
		<path class="st1" d="M329,231.1v-25.6h-23.8v25.6h-7.4v-53.1h7.4v21.3H329v-21.3h7.4v53.1H329z"/>
		<path class="st2" d="M286,116.7c0-5.4-4.4-9.8-9.8-9.8c-5.4,0-9.8,4.4-9.8,9.8c0,5.4,4.4,9.8,9.8,9.8    C281.6,126.5,286,122.2,286,116.7"/>
		<path class="st1" d="M138.9,169.2l-7-37.7L119,170h-2l-13.2-38.5L97,169.2h-7.6l11-58.7h3.7l14,42.8l12.9-42.8h3.6l11.9,58.7    H138.9z"/>
		<path class="st1" d="M252.1,114.4l-3.3,6.6c-4-3-8-4.5-11.9-4.5c-6.2,0-11,2.2-14.6,6.5c-3.6,4.3-5.3,10.1-5.3,17.2    c0,6.8,1.7,12.2,5.2,16.4c3.5,4.1,8.3,6.2,14.3,6.2c4.3,0,7.8-1.3,10.4-3.8v-13.7h-8.2v-6.8h16.2v25.6c-2.1,1.8-5.1,3.3-9,4.4    c-3.8,1.1-7.6,1.7-11.2,1.7c-8.1,0-14.5-2.7-19.2-8.2c-4.7-5.5-7.1-12.8-7.1-21.9c0-9.1,2.6-16.4,7.7-22.1    c5.2-5.6,12.1-8.5,20.9-8.5C243.2,109.3,248.2,111,252.1,114.4z"/>
		<path class="st1" d="M334,112.5l-2.7,6.8c-2.6-1.9-6.6-2.8-12.1-2.8c-5.2,0-9.3,2.2-12.4,6.6c-3.1,4.4-4.7,10.1-4.7,17.1    c0,6.7,1.6,12.1,4.8,16.2c3.2,4.2,7.3,6.2,12.4,6.2c5.5,0,9.8-1.9,12.7-5.8l4.4,6.1c-4.7,4.6-10.7,6.9-18,6.9    c-7.7,0-13.7-2.8-18.2-8.3c-4.4-5.5-6.6-12.8-6.6-21.9c0-8.8,2.4-16,7.1-21.8c4.7-5.8,10.8-8.7,18.3-8.7    C325.4,109.3,330.4,110.4,334,112.5z"/>
		<polygon class="st1" points="181.4,110.5 179.2,110.5 155.3,170 164.3,170 168.7,157.6 190.6,157.6 194.6,170 203.6,170   "/>
		<rect x="272.2" y="133.4" class="st1" width="8" height="36.1"/>
		<circle class="st3" cx="162.2" cy="204.9" r="26.3"/>
	</g>
</g>
</svg>